<svg width="512" height="316" viewBox="0 0 512 316" fill="none" xmlns="http://www.w3.org/2000/svg">
<g opacity="0.5">
<rect width="512" height="316" fill="#BABEAE"/>
<path d="M185.227 171.688C185.227 169.806 185.625 168.514 186.423 167.812C187.22 167.079 188.161 166.568 189.246 166.281C190.331 165.962 191.304 165.532 192.165 164.989C193.026 164.447 193.521 163.426 193.648 161.927H174.843C173.088 161.927 171.796 161.353 170.967 160.204C170.137 159.024 169.723 157.636 169.723 156.041C169.723 154.765 170.09 153.457 170.823 152.117C171.557 150.745 172.418 149.677 173.407 148.911C174.651 147.954 175.927 147.029 177.235 146.136C178.543 145.243 179.819 144.317 181.063 143.36C181.765 142.818 182.515 142.036 183.312 141.016C184.142 139.963 184.844 138.862 185.418 137.714C186.024 136.534 186.327 135.497 186.327 134.604C186.327 133.327 186.056 132.115 185.514 130.967C185.003 129.818 184.477 128.654 183.935 127.474C183.424 126.261 183.169 124.969 183.169 123.598C183.169 119.738 184.445 116.946 186.997 115.224C189.581 113.501 192.612 112.64 196.089 112.64C199.407 112.64 202.102 113.501 204.176 115.224C206.281 116.914 207.334 119.498 207.334 122.976C207.334 124.922 206.871 126.82 205.946 128.67C205.053 130.488 203.921 132.195 202.549 133.79C201.209 135.385 199.853 136.805 198.481 138.049L183.025 152.117H193.744C193.84 151.288 194.031 150.474 194.318 149.677C194.605 148.879 195.052 148.177 195.658 147.571L206.521 136.422C207.127 135.784 207.797 135.178 208.53 134.604C209.296 133.997 210.141 133.694 211.066 133.694C212.279 133.694 213.06 134.141 213.411 135.034C213.794 135.927 213.985 136.868 213.985 137.857L214.081 152.117H217.861C219.361 152.117 220.541 152.5 221.402 153.266C222.264 154.031 222.694 155.18 222.694 156.711C222.694 158.402 222.327 159.694 221.594 160.587C220.86 161.48 219.6 161.927 217.813 161.927H214.177C214.336 163.171 214.799 164.112 215.564 164.75C216.33 165.388 217.175 165.962 218.101 166.473C219.058 166.951 219.871 167.573 220.541 168.339C221.243 169.073 221.594 170.189 221.594 171.688C221.594 175.229 219.871 177 216.426 177H190.395C186.949 177 185.227 175.229 185.227 171.688ZM257.195 114.506C261.502 114.506 265.234 115.335 268.393 116.994C271.583 118.621 274.199 120.854 276.24 123.693C278.314 126.501 279.845 129.707 280.834 133.312C281.855 136.916 282.365 140.665 282.365 144.557C282.365 148.672 281.903 152.755 280.978 156.807C280.084 160.858 278.617 164.559 276.575 167.908C274.565 171.226 271.902 173.89 268.584 175.899C265.266 177.909 261.215 178.914 256.43 178.914C251.581 178.914 247.481 178.069 244.132 176.378C240.782 174.655 238.087 172.311 236.045 169.344C234.003 166.377 232.52 162.964 231.595 159.104C230.67 155.212 230.207 151.112 230.207 146.806C230.207 142.627 230.733 138.607 231.786 134.747C232.871 130.887 234.514 127.442 236.715 124.411C238.948 121.349 241.755 118.94 245.137 117.186C248.55 115.399 252.57 114.506 257.195 114.506ZM256.669 170.062C257.498 170.062 258.168 169.424 258.679 168.147C259.189 166.871 259.588 165.26 259.875 163.314C260.162 161.368 260.354 159.359 260.449 157.285C260.577 155.212 260.641 153.345 260.641 151.687C260.673 150.028 260.688 148.895 260.688 148.289C260.688 147.46 260.688 146.088 260.688 144.174C260.688 142.228 260.625 140.09 260.497 137.762C260.401 135.401 260.194 133.136 259.875 130.967C259.588 128.766 259.157 126.963 258.583 125.56C258.009 124.124 257.243 123.406 256.286 123.406C255.297 123.406 254.532 123.965 253.989 125.081C253.447 126.198 253.048 127.553 252.793 129.148C252.538 130.712 252.362 132.227 252.267 133.694C252.203 135.13 252.171 136.183 252.171 136.853C252.139 138.543 252.107 140.25 252.075 141.973C252.043 143.663 252.027 145.354 252.027 147.045C252.027 148.13 252.043 149.693 252.075 151.734C252.107 153.776 252.187 155.929 252.314 158.194C252.474 160.427 252.697 162.485 252.984 164.367C253.303 166.249 253.734 167.605 254.276 168.435C254.595 168.881 254.914 169.264 255.233 169.583C255.584 169.902 256.063 170.062 256.669 170.062ZM302.08 171.688C302.08 169.806 302.479 168.514 303.276 167.812C304.074 167.079 305.015 166.568 306.1 166.281C307.184 165.962 308.157 165.532 309.019 164.989C309.88 164.447 310.374 163.426 310.502 161.927H291.696C289.942 161.927 288.65 161.353 287.82 160.204C286.991 159.024 286.576 157.636 286.576 156.041C286.576 154.765 286.943 153.457 287.677 152.117C288.41 150.745 289.272 149.677 290.261 148.911C291.505 147.954 292.781 147.029 294.089 146.136C295.397 145.243 296.673 144.317 297.917 143.36C298.619 142.818 299.368 142.036 300.166 141.016C300.995 139.963 301.697 138.862 302.271 137.714C302.878 136.534 303.181 135.497 303.181 134.604C303.181 133.327 302.91 132.115 302.367 130.967C301.857 129.818 301.33 128.654 300.788 127.474C300.278 126.261 300.022 124.969 300.022 123.598C300.022 119.738 301.299 116.946 303.851 115.224C306.435 113.501 309.465 112.64 312.942 112.64C316.26 112.64 318.956 113.501 321.029 115.224C323.135 116.914 324.188 119.498 324.188 122.976C324.188 124.922 323.725 126.82 322.8 128.67C321.907 130.488 320.774 132.195 319.402 133.79C318.062 135.385 316.707 136.805 315.335 138.049L299.879 152.117H310.598C310.693 151.288 310.885 150.474 311.172 149.677C311.459 148.879 311.906 148.177 312.512 147.571L323.374 136.422C323.98 135.784 324.65 135.178 325.384 134.604C326.149 133.997 326.995 133.694 327.92 133.694C329.132 133.694 329.914 134.141 330.265 135.034C330.647 135.927 330.839 136.868 330.839 137.857L330.935 152.117H334.715C336.214 152.117 337.395 152.5 338.256 153.266C339.117 154.031 339.548 155.18 339.548 156.711C339.548 158.402 339.181 159.694 338.447 160.587C337.714 161.48 336.453 161.927 334.667 161.927H331.03C331.19 163.171 331.652 164.112 332.418 164.75C333.184 165.388 334.029 165.962 334.954 166.473C335.911 166.951 336.725 167.573 337.395 168.339C338.096 169.073 338.447 170.189 338.447 171.688C338.447 175.229 336.725 177 333.279 177H307.248C303.803 177 302.08 175.229 302.08 171.688Z" fill="#32342E"/>
<path d="M144.526 222H140.571L146.597 204.545H151.352L157.369 222H153.415L149.043 208.534H148.906L144.526 222ZM144.278 215.139H153.619V218.02H144.278V215.139ZM168.246 218.233L168.255 213.878H168.783L172.977 208.909H177.144L171.511 215.489H170.65L168.246 218.233ZM164.957 222V204.545H168.587V222H164.957ZM173.138 222L169.286 216.298L171.707 213.733L177.391 222H173.138ZM184.352 222.256C183.006 222.256 181.847 221.983 180.875 221.438C179.909 220.886 179.165 220.108 178.642 219.102C178.119 218.091 177.858 216.895 177.858 215.514C177.858 214.168 178.119 212.986 178.642 211.969C179.165 210.952 179.901 210.159 180.849 209.591C181.804 209.023 182.923 208.739 184.207 208.739C185.071 208.739 185.875 208.878 186.619 209.156C187.369 209.429 188.023 209.841 188.58 210.392C189.142 210.943 189.58 211.636 189.892 212.472C190.205 213.301 190.361 214.273 190.361 215.386V216.384H179.307V214.134H186.943C186.943 213.611 186.83 213.148 186.602 212.744C186.375 212.341 186.06 212.026 185.656 211.798C185.259 211.565 184.795 211.449 184.267 211.449C183.716 211.449 183.227 211.577 182.801 211.832C182.381 212.082 182.051 212.42 181.812 212.847C181.574 213.267 181.452 213.736 181.446 214.253V216.392C181.446 217.04 181.565 217.599 181.804 218.071C182.048 218.543 182.392 218.906 182.835 219.162C183.278 219.418 183.804 219.545 184.412 219.545C184.815 219.545 185.185 219.489 185.52 219.375C185.855 219.261 186.142 219.091 186.381 218.864C186.619 218.636 186.801 218.358 186.926 218.028L190.284 218.25C190.114 219.057 189.764 219.761 189.236 220.364C188.713 220.96 188.037 221.426 187.207 221.761C186.384 222.091 185.432 222.256 184.352 222.256ZM182.818 207.222L184.625 203.344H187.983L185.384 207.222H182.818ZM192.73 226.909V208.909H196.31V211.108H196.472C196.631 210.756 196.861 210.398 197.162 210.034C197.469 209.665 197.866 209.358 198.355 209.114C198.849 208.864 199.463 208.739 200.196 208.739C201.151 208.739 202.031 208.989 202.838 209.489C203.645 209.983 204.29 210.73 204.773 211.73C205.256 212.724 205.497 213.972 205.497 215.472C205.497 216.932 205.261 218.165 204.79 219.17C204.324 220.17 203.688 220.929 202.881 221.446C202.08 221.957 201.182 222.213 200.188 222.213C199.483 222.213 198.884 222.097 198.389 221.864C197.901 221.631 197.5 221.338 197.188 220.986C196.875 220.628 196.636 220.267 196.472 219.903H196.361V226.909H192.73ZM196.284 215.455C196.284 216.233 196.392 216.912 196.608 217.491C196.824 218.071 197.136 218.523 197.545 218.847C197.955 219.165 198.452 219.324 199.037 219.324C199.628 219.324 200.128 219.162 200.537 218.838C200.946 218.509 201.256 218.054 201.466 217.474C201.682 216.889 201.79 216.216 201.79 215.455C201.79 214.699 201.685 214.034 201.474 213.46C201.264 212.886 200.955 212.437 200.545 212.114C200.136 211.79 199.634 211.628 199.037 211.628C198.446 211.628 197.946 211.784 197.537 212.097C197.134 212.409 196.824 212.852 196.608 213.426C196.392 214 196.284 214.676 196.284 215.455ZM217.103 214.432V222H213.472V208.909H216.933V211.219H217.086C217.376 210.457 217.862 209.855 218.543 209.412C219.225 208.963 220.052 208.739 221.023 208.739C221.933 208.739 222.725 208.938 223.401 209.335C224.077 209.733 224.603 210.301 224.978 211.04C225.353 211.773 225.54 212.648 225.54 213.665V222H221.91V214.312C221.915 213.511 221.711 212.886 221.296 212.438C220.881 211.983 220.31 211.756 219.583 211.756C219.094 211.756 218.663 211.861 218.288 212.071C217.918 212.281 217.629 212.588 217.418 212.991C217.214 213.389 217.109 213.869 217.103 214.432ZM234.368 222.256C233.021 222.256 231.862 221.983 230.891 221.438C229.925 220.886 229.18 220.108 228.658 219.102C228.135 218.091 227.874 216.895 227.874 215.514C227.874 214.168 228.135 212.986 228.658 211.969C229.18 210.952 229.916 210.159 230.865 209.591C231.82 209.023 232.939 208.739 234.223 208.739C235.087 208.739 235.891 208.878 236.635 209.156C237.385 209.429 238.038 209.841 238.595 210.392C239.158 210.943 239.595 211.636 239.908 212.472C240.22 213.301 240.376 214.273 240.376 215.386V216.384H229.322V214.134H236.959C236.959 213.611 236.845 213.148 236.618 212.744C236.391 212.341 236.075 212.026 235.672 211.798C235.274 211.565 234.811 211.449 234.283 211.449C233.732 211.449 233.243 211.577 232.817 211.832C232.396 212.082 232.067 212.42 231.828 212.847C231.589 213.267 231.467 213.736 231.462 214.253V216.392C231.462 217.04 231.581 217.599 231.82 218.071C232.064 218.543 232.408 218.906 232.851 219.162C233.294 219.418 233.82 219.545 234.428 219.545C234.831 219.545 235.2 219.489 235.536 219.375C235.871 219.261 236.158 219.091 236.396 218.864C236.635 218.636 236.817 218.358 236.942 218.028L240.3 218.25C240.129 219.057 239.78 219.761 239.251 220.364C238.729 220.96 238.053 221.426 237.223 221.761C236.399 222.091 235.447 222.256 234.368 222.256ZM242.746 222V208.909H246.206V211.219H246.359C246.632 210.452 247.087 209.847 247.723 209.403C248.359 208.96 249.121 208.739 250.007 208.739C250.905 208.739 251.669 208.963 252.3 209.412C252.93 209.855 253.351 210.457 253.561 211.219H253.697C253.964 210.469 254.447 209.869 255.146 209.42C255.851 208.966 256.683 208.739 257.643 208.739C258.865 208.739 259.857 209.128 260.618 209.906C261.385 210.679 261.768 211.776 261.768 213.196V222H258.146V213.912C258.146 213.185 257.953 212.639 257.567 212.276C257.18 211.912 256.697 211.73 256.118 211.73C255.459 211.73 254.945 211.94 254.575 212.361C254.206 212.776 254.021 213.324 254.021 214.006V222H250.501V213.835C250.501 213.193 250.317 212.682 249.947 212.301C249.584 211.92 249.104 211.73 248.507 211.73C248.104 211.73 247.74 211.832 247.416 212.037C247.098 212.236 246.845 212.517 246.658 212.881C246.47 213.239 246.376 213.659 246.376 214.142V222H242.746ZM277.154 208.909V211.636H269.271V208.909H277.154ZM271.06 205.773H274.691V217.977C274.691 218.312 274.742 218.574 274.844 218.761C274.947 218.943 275.089 219.071 275.271 219.145C275.458 219.219 275.674 219.256 275.918 219.256C276.089 219.256 276.259 219.241 276.43 219.213C276.6 219.179 276.731 219.153 276.822 219.136L277.393 221.838C277.211 221.895 276.955 221.96 276.626 222.034C276.296 222.114 275.896 222.162 275.424 222.179C274.549 222.213 273.782 222.097 273.123 221.83C272.469 221.562 271.961 221.148 271.597 220.585C271.234 220.023 271.055 219.312 271.06 218.455V205.773ZM283.252 222.247C282.417 222.247 281.673 222.102 281.019 221.812C280.366 221.517 279.849 221.082 279.468 220.509C279.093 219.929 278.906 219.207 278.906 218.344C278.906 217.616 279.039 217.006 279.306 216.511C279.573 216.017 279.937 215.619 280.397 215.318C280.857 215.017 281.38 214.79 281.965 214.636C282.556 214.483 283.175 214.375 283.823 214.312C284.585 214.233 285.198 214.159 285.664 214.091C286.13 214.017 286.468 213.909 286.678 213.767C286.888 213.625 286.994 213.415 286.994 213.136V213.085C286.994 212.545 286.823 212.128 286.482 211.832C286.147 211.537 285.67 211.389 285.05 211.389C284.397 211.389 283.877 211.534 283.491 211.824C283.104 212.108 282.849 212.466 282.724 212.898L279.366 212.625C279.536 211.83 279.871 211.142 280.371 210.562C280.871 209.977 281.516 209.528 282.306 209.216C283.102 208.898 284.022 208.739 285.067 208.739C285.795 208.739 286.491 208.824 287.156 208.994C287.826 209.165 288.42 209.429 288.937 209.787C289.46 210.145 289.871 210.605 290.173 211.168C290.474 211.724 290.624 212.392 290.624 213.17V222H287.181V220.185H287.079C286.869 220.594 286.587 220.955 286.235 221.267C285.883 221.574 285.46 221.815 284.965 221.991C284.471 222.162 283.9 222.247 283.252 222.247ZM284.292 219.741C284.826 219.741 285.298 219.636 285.707 219.426C286.116 219.21 286.437 218.92 286.67 218.557C286.903 218.193 287.019 217.781 287.019 217.321V215.932C286.906 216.006 286.749 216.074 286.55 216.136C286.357 216.193 286.138 216.247 285.894 216.298C285.65 216.344 285.406 216.386 285.161 216.426C284.917 216.46 284.695 216.491 284.496 216.52C284.07 216.582 283.698 216.682 283.38 216.818C283.062 216.955 282.815 217.139 282.638 217.372C282.462 217.599 282.374 217.884 282.374 218.224C282.374 218.719 282.553 219.097 282.911 219.358C283.275 219.614 283.735 219.741 284.292 219.741ZM297.072 204.545V222H293.441V204.545H297.072ZM303.713 222.247C302.878 222.247 302.134 222.102 301.48 221.812C300.827 221.517 300.31 221.082 299.929 220.509C299.554 219.929 299.366 219.207 299.366 218.344C299.366 217.616 299.5 217.006 299.767 216.511C300.034 216.017 300.398 215.619 300.858 215.318C301.318 215.017 301.841 214.79 302.426 214.636C303.017 214.483 303.636 214.375 304.284 214.312C305.045 214.233 305.659 214.159 306.125 214.091C306.591 214.017 306.929 213.909 307.139 213.767C307.349 213.625 307.455 213.415 307.455 213.136V213.085C307.455 212.545 307.284 212.128 306.943 211.832C306.608 211.537 306.131 211.389 305.511 211.389C304.858 211.389 304.338 211.534 303.952 211.824C303.565 212.108 303.31 212.466 303.185 212.898L299.827 212.625C299.997 211.83 300.332 211.142 300.832 210.562C301.332 209.977 301.977 209.528 302.767 209.216C303.563 208.898 304.483 208.739 305.528 208.739C306.256 208.739 306.952 208.824 307.616 208.994C308.287 209.165 308.881 209.429 309.398 209.787C309.92 210.145 310.332 210.605 310.634 211.168C310.935 211.724 311.085 212.392 311.085 213.17V222H307.642V220.185H307.54C307.33 220.594 307.048 220.955 306.696 221.267C306.344 221.574 305.92 221.815 305.426 221.991C304.932 222.162 304.361 222.247 303.713 222.247ZM304.753 219.741C305.287 219.741 305.759 219.636 306.168 219.426C306.577 219.21 306.898 218.92 307.131 218.557C307.364 218.193 307.48 217.781 307.48 217.321V215.932C307.366 216.006 307.21 216.074 307.011 216.136C306.818 216.193 306.599 216.247 306.355 216.298C306.111 216.344 305.866 216.386 305.622 216.426C305.378 216.46 305.156 216.491 304.957 216.52C304.531 216.582 304.159 216.682 303.841 216.818C303.523 216.955 303.276 217.139 303.099 217.372C302.923 217.599 302.835 217.884 302.835 218.224C302.835 218.719 303.014 219.097 303.372 219.358C303.736 219.614 304.196 219.741 304.753 219.741ZM304.361 207.222L306.168 203.344H309.526L306.926 207.222H304.361ZM317.533 204.545V222H313.902V204.545H317.533ZM324.072 214.432V222H320.441V204.545H323.969V211.219H324.123C324.418 210.446 324.896 209.841 325.555 209.403C326.214 208.96 327.04 208.739 328.035 208.739C328.944 208.739 329.737 208.938 330.413 209.335C331.094 209.727 331.623 210.293 331.998 211.031C332.379 211.764 332.566 212.642 332.56 213.665V222H328.93V214.312C328.935 213.506 328.731 212.878 328.316 212.429C327.907 211.98 327.333 211.756 326.594 211.756C326.1 211.756 325.663 211.861 325.282 212.071C324.907 212.281 324.612 212.588 324.396 212.991C324.185 213.389 324.077 213.869 324.072 214.432ZM339.151 222.247C338.315 222.247 337.571 222.102 336.918 221.812C336.264 221.517 335.747 221.082 335.366 220.509C334.991 219.929 334.804 219.207 334.804 218.344C334.804 217.616 334.938 217.006 335.205 216.511C335.472 216.017 335.835 215.619 336.295 215.318C336.756 215.017 337.278 214.79 337.864 214.636C338.455 214.483 339.074 214.375 339.722 214.312C340.483 214.233 341.097 214.159 341.562 214.091C342.028 214.017 342.366 213.909 342.577 213.767C342.787 213.625 342.892 213.415 342.892 213.136V213.085C342.892 212.545 342.722 212.128 342.381 211.832C342.045 211.537 341.568 211.389 340.949 211.389C340.295 211.389 339.776 211.534 339.389 211.824C339.003 212.108 338.747 212.466 338.622 212.898L335.264 212.625C335.435 211.83 335.77 211.142 336.27 210.562C336.77 209.977 337.415 209.528 338.205 209.216C339 208.898 339.92 208.739 340.966 208.739C341.693 208.739 342.389 208.824 343.054 208.994C343.724 209.165 344.318 209.429 344.835 209.787C345.358 210.145 345.77 210.605 346.071 211.168C346.372 211.724 346.523 212.392 346.523 213.17V222H343.08V220.185H342.977C342.767 220.594 342.486 220.955 342.134 221.267C341.781 221.574 341.358 221.815 340.864 221.991C340.369 222.162 339.798 222.247 339.151 222.247ZM340.19 219.741C340.724 219.741 341.196 219.636 341.605 219.426C342.014 219.21 342.335 218.92 342.568 218.557C342.801 218.193 342.918 217.781 342.918 217.321V215.932C342.804 216.006 342.648 216.074 342.449 216.136C342.256 216.193 342.037 216.247 341.793 216.298C341.548 216.344 341.304 216.386 341.06 216.426C340.815 216.46 340.594 216.491 340.395 216.52C339.969 216.582 339.597 216.682 339.278 216.818C338.96 216.955 338.713 217.139 338.537 217.372C338.361 217.599 338.273 217.884 338.273 218.224C338.273 218.719 338.452 219.097 338.81 219.358C339.173 219.614 339.634 219.741 340.19 219.741ZM356.303 208.909V211.636H348.419V208.909H356.303ZM350.209 205.773H353.839V217.977C353.839 218.312 353.891 218.574 353.993 218.761C354.095 218.943 354.237 219.071 354.419 219.145C354.607 219.219 354.822 219.256 355.067 219.256C355.237 219.256 355.408 219.241 355.578 219.213C355.749 219.179 355.879 219.153 355.97 219.136L356.541 221.838C356.359 221.895 356.104 221.96 355.774 222.034C355.445 222.114 355.044 222.162 354.572 222.179C353.697 222.213 352.93 222.097 352.271 221.83C351.618 221.562 351.109 221.148 350.746 220.585C350.382 220.023 350.203 219.312 350.209 218.455V205.773ZM364.442 222.256C363.118 222.256 361.973 221.974 361.007 221.412C360.047 220.844 359.305 220.054 358.783 219.043C358.26 218.026 357.999 216.847 357.999 215.506C357.999 214.153 358.26 212.972 358.783 211.96C359.305 210.943 360.047 210.153 361.007 209.591C361.973 209.023 363.118 208.739 364.442 208.739C365.766 208.739 366.908 209.023 367.868 209.591C368.834 210.153 369.578 210.943 370.101 211.96C370.624 212.972 370.885 214.153 370.885 215.506C370.885 216.847 370.624 218.026 370.101 219.043C369.578 220.054 368.834 220.844 367.868 221.412C366.908 221.974 365.766 222.256 364.442 222.256ZM364.459 219.443C365.061 219.443 365.564 219.273 365.967 218.932C366.371 218.585 366.675 218.114 366.879 217.517C367.089 216.92 367.195 216.241 367.195 215.48C367.195 214.719 367.089 214.04 366.879 213.443C366.675 212.847 366.371 212.375 365.967 212.028C365.564 211.682 365.061 211.509 364.459 211.509C363.851 211.509 363.339 211.682 362.925 212.028C362.516 212.375 362.206 212.847 361.996 213.443C361.791 214.04 361.689 214.719 361.689 215.48C361.689 216.241 361.791 216.92 361.996 217.517C362.206 218.114 362.516 218.585 362.925 218.932C363.339 219.273 363.851 219.443 364.459 219.443ZM363.138 207.222L364.945 203.344H368.303L365.703 207.222H363.138Z" fill="#32342E"/>
</g>
</svg>
