<?xml version="1.0" encoding="UTF-8"?>
<svg xmlns="http://www.w3.org/2000/svg" viewBox="0 0 1283.63 1331.23">
  <defs>
    <style>
      .cls-1 {
        stroke-width: 100px;
      }

      .cls-1, .cls-2 {
        fill: none;
        stroke: #BABEAE;
        stroke-linecap: round;
        stroke-miterlimit: 10;
      }

      .cls-2 {
        stroke-width: 100.6px;
      }
    </style>
  </defs>
  <g id="ház">
    <g>
      <line class="cls-2" x1="672.34" y1="134.58" x2="50.3" y2="771.47"/>
      <line class="cls-2" x1="776.37" y1="241.1" x2="50.3" y2="984.49"/>
      <line class="cls-2" x1="880.39" y1="347.6" x2="50.3" y2="1197.5"/>
      <line class="cls-2" x1="984.43" y1="454.11" x2="176.85" y2="1280.93"/>
      <line class="cls-2" x1="1088.45" y1="560.61" x2="384.92" y2="1280.93"/>
      <line class="cls-2" x1="1192.47" y1="667.13" x2="592.97" y2="1280.93"/>
      <line class="cls-2" x1="1229.73" y1="842" x2="801.03" y2="1280.93"/>
      <line class="cls-2" x1="1229.73" y1="1055" x2="1009.07" y2="1280.93"/>
      <line class="cls-2" x1="1229.73" y1="1268.03" x2="1217.13" y2="1280.93"/>
    </g>
  </g>
  <g id="Layer_2" data-name="Layer 2">
    <g>
      <line class="cls-1" x1="1233.63" y1="133.06" x2="1156.54" y2="54.22"/>
      <line class="cls-1" x1="1233.63" y1="335.55" x2="958.53" y2="54.22"/>
      <line class="cls-1" x1="1233.63" y1="538.06" x2="760.51" y2="54.22"/>
    </g>
    <g>
      <line class="cls-1" x1="583.54" y1="58.44" x2="575.3" y2="50"/>
      <line class="cls-1" x1="484.59" y1="159.76" x2="377.41" y2="50"/>
      <line class="cls-1" x1="385.64" y1="261.07" x2="179.53" y2="50"/>
      <line class="cls-1" x1="286.69" y1="362.38" x2="51.79" y2="121.82"/>
      <line class="cls-1" x1="187.74" y1="463.69" x2="51.79" y2="324.47"/>
      <line class="cls-1" x1="88.78" y1="565" x2="51.79" y2="527.12"/>
    </g>
  </g>
</svg>